<svg width="160" height="160" viewBox="0 0 160 160" fill="none" xmlns="http://www.w3.org/2000/svg">
<circle cx="80" cy="80" r="80" fill="#3F3F3F"/>
<path d="M55.266 50.616C54.858 50.64 54.564 50.688 54.384 50.76C54.204 50.832 54.078 50.97 54.006 51.174C53.946 51.378 53.916 51.708 53.916 52.164V61.092C53.916 61.548 53.946 61.878 54.006 62.082C54.078 62.286 54.204 62.424 54.384 62.496C54.564 62.568 54.858 62.616 55.266 62.64V63C54.654 62.964 53.706 62.946 52.422 62.946C51.246 62.946 50.34 62.964 49.704 63V62.64C50.1 62.616 50.388 62.568 50.568 62.496C50.76 62.424 50.886 62.286 50.946 62.082C51.018 61.878 51.054 61.548 51.054 61.092V52.164C51.054 51.708 51.018 51.378 50.946 51.174C50.874 50.958 50.736 50.814 50.532 50.742C50.328 50.658 50.016 50.616 49.596 50.616H47.742C47.322 50.616 47.01 50.658 46.806 50.742C46.602 50.814 46.464 50.958 46.392 51.174C46.32 51.378 46.284 51.708 46.284 52.164V61.092C46.284 61.548 46.314 61.878 46.374 62.082C46.446 62.286 46.572 62.424 46.752 62.496C46.932 62.568 47.226 62.616 47.634 62.64V63C46.986 62.964 46.08 62.946 44.916 62.946C43.632 62.946 42.684 62.964 42.072 63V62.64C42.468 62.616 42.756 62.568 42.936 62.496C43.128 62.424 43.254 62.286 43.314 62.082C43.386 61.878 43.422 61.548 43.422 61.092V52.164C43.422 51.708 43.386 51.378 43.314 51.174C43.254 50.97 43.128 50.832 42.936 50.76C42.756 50.688 42.468 50.64 42.072 50.616V50.256C42.684 50.292 43.632 50.31 44.916 50.31C45.516 50.31 46.296 50.298 47.256 50.274L48.696 50.256L50.1 50.274C51.06 50.298 51.834 50.31 52.422 50.31C53.706 50.31 54.654 50.292 55.266 50.256V50.616ZM61.2465 61.776C62.2305 61.776 63.0225 61.296 63.6225 60.336L63.9465 60.444C63.7065 61.224 63.2745 61.89 62.6505 62.442C62.0385 62.982 61.2705 63.252 60.3465 63.252C59.0745 63.252 58.0605 62.85 57.3045 62.046C56.5605 61.23 56.1885 60.03 56.1885 58.446C56.1885 56.826 56.5905 55.59 57.3945 54.738C58.1985 53.874 59.2665 53.442 60.5985 53.442C62.8545 53.442 63.9825 54.774 63.9825 57.438H58.9245C58.9125 57.618 58.9065 57.9 58.9065 58.284C58.9065 59.076 59.0145 59.736 59.2305 60.264C59.4585 60.792 59.7465 61.176 60.0945 61.416C60.4545 61.656 60.8385 61.776 61.2465 61.776ZM60.4905 53.82C60.0585 53.82 59.6985 54.09 59.4105 54.63C59.1345 55.158 58.9605 55.98 58.8885 57.096H61.7145C61.7385 56.148 61.6425 55.368 61.4265 54.756C61.2225 54.132 60.9105 53.82 60.4905 53.82ZM71.4868 53.442C72.1108 53.442 72.6628 53.61 73.1428 53.946C73.6348 54.282 74.0188 54.786 74.2948 55.458C74.5708 56.13 74.7088 56.952 74.7088 57.924C74.7088 59.64 74.3308 60.96 73.5748 61.884C72.8308 62.796 71.8168 63.252 70.5328 63.252C70.1728 63.252 69.8308 63.204 69.5068 63.108C69.1948 63.012 68.9248 62.868 68.6968 62.676V64.476C68.6968 65.004 68.8288 65.37 69.0928 65.574C69.3568 65.778 69.7648 65.88 70.3168 65.88V66.258L69.8308 66.24C68.4988 66.204 67.6528 66.186 67.2928 66.186C66.9328 66.186 66.1768 66.21 65.0248 66.258V65.88C65.4208 65.88 65.6968 65.79 65.8528 65.61C66.0208 65.442 66.1048 65.124 66.1048 64.656V55.656C66.1048 55.104 66.0148 54.702 65.8348 54.45C65.6668 54.198 65.3728 54.072 64.9528 54.072V53.694C65.3368 53.73 65.7088 53.748 66.0688 53.748C67.1128 53.748 67.9888 53.664 68.6968 53.496V55.152C68.9488 54.6 69.3148 54.18 69.7948 53.892C70.2748 53.592 70.8388 53.442 71.4868 53.442ZM69.8308 62.766C70.5988 62.766 71.1508 62.388 71.4868 61.632C71.8228 60.864 71.9908 59.748 71.9908 58.284C71.9908 56.82 71.8528 55.776 71.5768 55.152C71.3128 54.528 70.9288 54.216 70.4248 54.216C70.0168 54.216 69.6508 54.354 69.3268 54.63C69.0148 54.906 68.8048 55.29 68.6968 55.782V62.28C68.9848 62.604 69.3628 62.766 69.8308 62.766ZM81.1097 61.776C82.0937 61.776 82.8857 61.296 83.4857 60.336L83.8097 60.444C83.5697 61.224 83.1377 61.89 82.5137 62.442C81.9017 62.982 81.1337 63.252 80.2097 63.252C78.9377 63.252 77.9237 62.85 77.1677 62.046C76.4237 61.23 76.0517 60.03 76.0517 58.446C76.0517 56.826 76.4537 55.59 77.2577 54.738C78.0617 53.874 79.1297 53.442 80.4617 53.442C82.7177 53.442 83.8457 54.774 83.8457 57.438L78.7877 57.438C78.7757 57.618 78.7697 57.9 78.7697 58.284C78.7697 59.076 78.8777 59.736 79.0937 60.264C79.3217 60.792 79.6097 61.176 79.9577 61.416C80.3177 61.656 80.7017 61.776 81.1097 61.776ZM80.3537 53.82C79.9217 53.82 79.5617 54.09 79.2737 54.63C78.9977 55.158 78.8237 55.98 78.7517 57.096H81.5777C81.6017 56.148 81.5057 55.368 81.2897 54.756C81.0857 54.132 80.7737 53.82 80.3537 53.82ZM95.8141 54.09C95.3941 54.09 95.0941 54.186 94.9141 54.378C94.7461 54.558 94.6621 54.894 94.6621 55.386V61.326C94.6621 61.818 94.7461 62.16 94.9141 62.352C95.0941 62.532 95.3941 62.622 95.8141 62.622V63C94.6141 62.952 93.8221 62.928 93.4381 62.928C93.0781 62.928 92.2981 62.952 91.0981 63V62.622C91.4581 62.622 91.7101 62.532 91.8541 62.352C91.9981 62.16 92.0701 61.818 92.0701 61.326V55.872L88.6501 61.668C88.6741 62.028 88.7581 62.28 88.9021 62.424C89.0581 62.556 89.2921 62.622 89.6041 62.622V63C88.5001 62.952 87.7561 62.928 87.3721 62.928C87.0121 62.928 86.1841 62.952 84.8881 63V62.622C85.3201 62.622 85.6201 62.532 85.7881 62.352C85.9561 62.16 86.0401 61.818 86.0401 61.326V55.386C86.0401 54.894 85.9561 54.558 85.7881 54.378C85.6201 54.186 85.3201 54.09 84.8881 54.09V53.712C86.1361 53.76 86.9281 53.784 87.2641 53.784C87.6721 53.784 88.4521 53.76 89.6041 53.712V54.09C89.2441 54.09 88.9921 54.186 88.8481 54.378C88.7041 54.558 88.6321 54.894 88.6321 55.386V61.002L92.0701 55.188C92.0581 54.768 91.9741 54.48 91.8181 54.324C91.6741 54.168 91.4341 54.09 91.0981 54.09V53.712C92.2501 53.76 92.9941 53.784 93.3301 53.784C93.7381 53.784 94.5661 53.76 95.8141 53.712V54.09ZM92.8081 48.726C93.1921 48.726 93.5041 48.852 93.7441 49.104C93.9961 49.344 94.1221 49.656 94.1221 50.04C94.1221 50.328 94.0321 50.598 93.8521 50.85C93.6721 51.09 93.4381 51.294 93.1501 51.462C92.4421 51.882 91.5061 52.092 90.3421 52.092C89.1901 52.092 88.2481 51.882 87.5161 51.462C87.2401 51.294 87.0121 51.09 86.8321 50.85C86.6641 50.598 86.5801 50.328 86.5801 50.04C86.5801 49.656 86.7001 49.344 86.9401 49.104C87.1801 48.852 87.4981 48.726 87.8941 48.726C88.2781 48.726 88.5961 48.852 88.8481 49.104C89.1121 49.344 89.2441 49.656 89.2441 50.04C89.2441 50.352 89.1541 50.622 88.9741 50.85C88.7941 51.066 88.5481 51.222 88.2361 51.318C88.5121 51.462 88.8421 51.57 89.2261 51.642C89.6101 51.702 89.9821 51.732 90.3421 51.732C90.7021 51.732 91.0681 51.696 91.4401 51.624C91.8241 51.552 92.1541 51.444 92.4301 51.3C92.1301 51.204 91.8901 51.048 91.7101 50.832C91.5421 50.616 91.4581 50.352 91.4581 50.04C91.4581 49.644 91.5841 49.326 91.8361 49.086C92.0881 48.846 92.4121 48.726 92.8081 48.726ZM106.277 53.712C106.193 54.648 106.151 55.488 106.151 56.232C106.151 56.736 106.169 57.144 106.205 57.456H105.791C105.395 55.2 104.591 54.072 103.379 54.072H102.785V61.146C102.785 61.698 102.923 62.082 103.199 62.298C103.487 62.514 103.913 62.622 104.477 62.622V63L103.973 62.982C102.677 62.946 101.855 62.928 101.507 62.928C101.159 62.928 100.319 62.946 98.987 62.982L98.501 63V62.622C99.089 62.622 99.515 62.532 99.779 62.352C100.055 62.172 100.193 61.806 100.193 61.254V54.072H99.527C98.975 54.072 98.501 54.33 98.105 54.846C97.721 55.362 97.421 56.232 97.205 57.456H96.791C96.827 57.168 96.845 56.76 96.845 56.232C96.845 55.512 96.803 54.672 96.719 53.712H98.627L99.725 53.73C100.445 53.754 101.027 53.766 101.471 53.766C101.915 53.766 102.509 53.754 103.253 53.73L104.369 53.712H106.277ZM118.103 54.09C117.683 54.09 117.383 54.186 117.203 54.378C117.035 54.558 116.951 54.894 116.951 55.386V61.326C116.951 61.818 117.035 62.16 117.203 62.352C117.383 62.532 117.683 62.622 118.103 62.622V63C116.903 62.952 116.111 62.928 115.727 62.928C115.367 62.928 114.587 62.952 113.387 63V62.622C113.747 62.622 113.999 62.532 114.143 62.352C114.287 62.16 114.359 61.818 114.359 61.326V55.872L110.939 61.668C110.963 62.028 111.047 62.28 111.191 62.424C111.347 62.556 111.581 62.622 111.893 62.622V63C110.789 62.952 110.045 62.928 109.661 62.928C109.301 62.928 108.473 62.952 107.177 63V62.622C107.609 62.622 107.909 62.532 108.077 62.352C108.245 62.16 108.329 61.818 108.329 61.326V55.386C108.329 54.894 108.245 54.558 108.077 54.378C107.909 54.186 107.609 54.09 107.177 54.09V53.712C108.425 53.76 109.217 53.784 109.553 53.784C109.961 53.784 110.741 53.76 111.893 53.712V54.09C111.533 54.09 111.281 54.186 111.137 54.378C110.993 54.558 110.921 54.894 110.921 55.386V61.002L114.359 55.188C114.347 54.768 114.263 54.48 114.107 54.324C113.963 54.168 113.723 54.09 113.387 54.09V53.712C114.539 53.76 115.283 53.784 115.619 53.784C116.027 53.784 116.855 53.76 118.103 53.712V54.09ZM36.5589 82.176C37.8309 82.224 38.7429 82.44 39.2949 82.824C39.8589 83.208 40.1409 83.772 40.1409 84.516C40.1409 86.172 38.8689 87 36.3249 87C36.1209 87 35.7189 86.988 35.1189 86.964C34.3749 86.94 33.7749 86.928 33.3189 86.928C32.9709 86.928 32.1489 86.952 30.8529 87V86.622C31.2849 86.622 31.5849 86.532 31.7529 86.352C31.9209 86.16 32.0049 85.818 32.0049 85.326V79.386C32.0049 78.894 31.9209 78.558 31.7529 78.378C31.5849 78.186 31.2849 78.09 30.8529 78.09V77.712C32.1009 77.76 32.8869 77.784 33.2109 77.784C33.6429 77.784 34.2069 77.772 34.9029 77.748C35.4789 77.724 35.8689 77.712 36.0729 77.712C38.4969 77.712 39.7089 78.42 39.7089 79.836C39.7089 80.424 39.4389 80.934 38.8989 81.366C38.3709 81.786 37.5909 82.056 36.5589 82.176ZM35.5329 78.09C35.1729 78.09 34.9269 78.18 34.7949 78.36C34.6629 78.528 34.5969 78.87 34.5969 79.386V82.122H34.8849C35.4729 82.11 35.9229 82.026 36.2349 81.87C36.5589 81.714 36.7809 81.492 36.9009 81.204C37.0209 80.916 37.0809 80.526 37.0809 80.034C37.0809 79.41 36.9729 78.93 36.7569 78.594C36.5409 78.258 36.1329 78.09 35.5329 78.09ZM35.5869 86.622C36.8469 86.622 37.4769 85.926 37.4769 84.534C37.4769 83.79 37.3029 83.262 36.9549 82.95C36.6069 82.626 36.0729 82.464 35.3529 82.464H34.5969V85.326C34.5969 85.842 34.6629 86.19 34.7949 86.37C34.9389 86.538 35.2029 86.622 35.5869 86.622ZM56.2984 78.09C55.8784 78.09 55.5784 78.186 55.3984 78.378C55.2304 78.558 55.1464 78.894 55.1464 79.386V85.326C55.1464 85.818 55.2304 86.16 55.3984 86.352C55.5784 86.532 55.8784 86.622 56.2984 86.622V87C55.0984 86.952 54.3064 86.928 53.9224 86.928C53.5624 86.928 52.7824 86.952 51.5824 87V86.622C51.9424 86.622 52.1944 86.532 52.3384 86.352C52.4824 86.16 52.5544 85.818 52.5544 85.326V79.872L49.1344 85.668C49.1584 86.028 49.2424 86.28 49.3864 86.424C49.5424 86.556 49.7764 86.622 50.0884 86.622V87C48.9844 86.952 48.2404 86.928 47.8564 86.928C47.4964 86.928 46.6684 86.952 45.3724 87V86.622C45.8044 86.622 46.1044 86.532 46.2724 86.352C46.4404 86.16 46.5244 85.818 46.5244 85.326V79.386C46.5244 78.894 46.4404 78.558 46.2724 78.378C46.1044 78.186 45.8044 78.09 45.3724 78.09V77.712C46.6204 77.76 47.4124 77.784 47.7484 77.784C48.1564 77.784 48.9364 77.76 50.0884 77.712V78.09C49.7284 78.09 49.4764 78.186 49.3324 78.378C49.1884 78.558 49.1164 78.894 49.1164 79.386V85.002L52.5544 79.188C52.5424 78.768 52.4584 78.48 52.3024 78.324C52.1584 78.168 51.9184 78.09 51.5824 78.09V77.712C52.7344 77.76 53.4784 77.784 53.8144 77.784C54.2224 77.784 55.0504 77.76 56.2984 77.712V78.09ZM67.7694 78.09C67.3494 78.09 67.0494 78.186 66.8694 78.378C66.7014 78.558 66.6174 78.894 66.6174 79.386V85.326C66.6174 85.818 66.7014 86.16 66.8694 86.352C67.0494 86.532 67.3494 86.622 67.7694 86.622V87C66.5694 86.952 65.7774 86.928 65.3934 86.928C65.0334 86.928 64.2534 86.952 63.0534 87L63.0534 86.622C63.4134 86.622 63.6654 86.532 63.8094 86.352C63.9534 86.16 64.0254 85.818 64.0254 85.326V82.392H60.9114V85.326C60.9114 85.818 60.9834 86.16 61.1274 86.352C61.2714 86.532 61.5234 86.622 61.8834 86.622V87C60.7794 86.952 60.0354 86.928 59.6514 86.928C59.2914 86.928 58.4634 86.952 57.1674 87V86.622C57.5994 86.622 57.8994 86.532 58.0674 86.352C58.2354 86.16 58.3194 85.818 58.3194 85.326V79.386C58.3194 78.894 58.2354 78.558 58.0674 78.378C57.8994 78.186 57.5994 78.09 57.1674 78.09V77.712C58.4154 77.76 59.2074 77.784 59.5434 77.784C59.9514 77.784 60.7314 77.76 61.8834 77.712V78.09C61.5234 78.09 61.2714 78.186 61.1274 78.378C60.9834 78.558 60.9114 78.894 60.9114 79.386V82.032H64.0254V79.386C64.0254 78.894 63.9534 78.558 63.8094 78.378C63.6654 78.186 63.4134 78.09 63.0534 78.09V77.712C64.2054 77.76 64.9494 77.784 65.2854 77.784C65.6934 77.784 66.5214 77.76 67.7694 77.712V78.09ZM78.2223 77.712C78.1383 78.648 78.0963 79.488 78.0963 80.232C78.0963 80.736 78.1143 81.144 78.1503 81.456H77.7363C77.3403 79.2 76.5363 78.072 75.3243 78.072H74.7303V85.146C74.7303 85.698 74.8683 86.082 75.1443 86.298C75.4323 86.514 75.8583 86.622 76.4223 86.622V87L75.9183 86.982C74.6223 86.946 73.8003 86.928 73.4523 86.928C73.1043 86.928 72.2643 86.946 70.9323 86.982L70.4463 87V86.622C71.0343 86.622 71.4603 86.532 71.7243 86.352C72.0003 86.172 72.1383 85.806 72.1383 85.254V78.072H71.4723C70.9203 78.072 70.4463 78.33 70.0503 78.846C69.6663 79.362 69.3663 80.232 69.1503 81.456H68.7363C68.7723 81.168 68.7903 80.76 68.7903 80.232C68.7903 79.512 68.7483 78.672 68.6643 77.712H70.5723L71.6703 77.73C72.3903 77.754 72.9723 77.766 73.4163 77.766C73.8603 77.766 74.4543 77.754 75.1983 77.73L76.3143 77.712H78.2223ZM84.4144 85.776C85.3984 85.776 86.1904 85.296 86.7904 84.336L87.1144 84.444C86.8744 85.224 86.4424 85.89 85.8184 86.442C85.2064 86.982 84.4384 87.252 83.5144 87.252C82.2424 87.252 81.2284 86.85 80.4724 86.046C79.7284 85.23 79.3564 84.03 79.3564 82.446C79.3564 80.826 79.7584 79.59 80.5624 78.738C81.3664 77.874 82.4344 77.442 83.7664 77.442C86.0224 77.442 87.1504 78.774 87.1504 81.438H82.0924C82.0804 81.618 82.0744 81.9 82.0744 82.284C82.0744 83.076 82.1824 83.736 82.3984 84.264C82.6264 84.792 82.9144 85.176 83.2624 85.416C83.6224 85.656 84.0064 85.776 84.4144 85.776ZM83.6584 77.82C83.2264 77.82 82.8664 78.09 82.5784 78.63C82.3024 79.158 82.1284 79.98 82.0564 81.096H84.8824C84.9064 80.148 84.8104 79.368 84.5944 78.756C84.3904 78.132 84.0784 77.82 83.6584 77.82ZM94.6547 77.442C95.2787 77.442 95.8307 77.61 96.3107 77.946C96.8027 78.282 97.1867 78.786 97.4627 79.458C97.7387 80.13 97.8767 80.952 97.8767 81.924C97.8767 83.64 97.4987 84.96 96.7427 85.884C95.9987 86.796 94.9847 87.252 93.7007 87.252C93.3407 87.252 92.9987 87.204 92.6747 87.108C92.3627 87.012 92.0927 86.868 91.8647 86.676V88.476C91.8647 89.004 91.9967 89.37 92.2607 89.574C92.5247 89.778 92.9327 89.88 93.4847 89.88V90.258L92.9987 90.24C91.6667 90.204 90.8207 90.186 90.4607 90.186C90.1007 90.186 89.3447 90.21 88.1927 90.258V89.88C88.5887 89.88 88.8647 89.79 89.0207 89.61C89.1887 89.442 89.2727 89.124 89.2727 88.656V79.656C89.2727 79.104 89.1827 78.702 89.0027 78.45C88.8347 78.198 88.5407 78.072 88.1207 78.072V77.694C88.5047 77.73 88.8767 77.748 89.2367 77.748C90.2807 77.748 91.1567 77.664 91.8647 77.496V79.152C92.1167 78.6 92.4827 78.18 92.9627 77.892C93.4427 77.592 94.0067 77.442 94.6547 77.442ZM92.9987 86.766C93.7667 86.766 94.3187 86.388 94.6547 85.632C94.9907 84.864 95.1587 83.748 95.1587 82.284C95.1587 80.82 95.0207 79.776 94.7447 79.152C94.4807 78.528 94.0967 78.216 93.5927 78.216C93.1847 78.216 92.8187 78.354 92.4947 78.63C92.1827 78.906 91.9727 79.29 91.8647 79.782V86.28C92.1527 86.604 92.5307 86.766 92.9987 86.766ZM109.588 78.09C109.168 78.09 108.868 78.186 108.688 78.378C108.52 78.558 108.436 78.894 108.436 79.386V85.326C108.436 85.818 108.52 86.16 108.688 86.352C108.868 86.532 109.168 86.622 109.588 86.622V87C108.388 86.952 107.596 86.928 107.212 86.928C106.852 86.928 106.072 86.952 104.872 87V86.622C105.232 86.622 105.484 86.532 105.628 86.352C105.772 86.16 105.844 85.818 105.844 85.326V82.392H102.73V85.326C102.73 85.818 102.802 86.16 102.946 86.352C103.09 86.532 103.342 86.622 103.702 86.622V87C102.598 86.952 101.854 86.928 101.47 86.928C101.11 86.928 100.282 86.952 98.9857 87V86.622C99.4177 86.622 99.7177 86.532 99.8857 86.352C100.054 86.16 100.138 85.818 100.138 85.326V79.386C100.138 78.894 100.054 78.558 99.8857 78.378C99.7177 78.186 99.4177 78.09 98.9857 78.09V77.712C100.234 77.76 101.026 77.784 101.362 77.784C101.77 77.784 102.55 77.76 103.702 77.712V78.09C103.342 78.09 103.09 78.186 102.946 78.378C102.802 78.558 102.73 78.894 102.73 79.386V82.032H105.844V79.386C105.844 78.894 105.772 78.558 105.628 78.378C105.484 78.186 105.232 78.09 104.872 78.09V77.712C106.024 77.76 106.768 77.784 107.104 77.784C107.512 77.784 108.34 77.76 109.588 77.712V78.09ZM115.739 85.776C116.723 85.776 117.515 85.296 118.115 84.336L118.439 84.444C118.199 85.224 117.767 85.89 117.143 86.442C116.531 86.982 115.763 87.252 114.839 87.252C113.567 87.252 112.553 86.85 111.797 86.046C111.053 85.23 110.681 84.03 110.681 82.446C110.681 80.826 111.083 79.59 111.887 78.738C112.691 77.874 113.759 77.442 115.091 77.442C117.347 77.442 118.475 78.774 118.475 81.438H113.417C113.405 81.618 113.399 81.9 113.399 82.284C113.399 83.076 113.507 83.736 113.723 84.264C113.951 84.792 114.239 85.176 114.587 85.416C114.947 85.656 115.331 85.776 115.739 85.776ZM114.983 77.82C114.551 77.82 114.191 78.09 113.903 78.63C113.627 79.158 113.453 79.98 113.381 81.096H116.207C116.231 80.148 116.135 79.368 115.919 78.756C115.715 78.132 115.403 77.82 114.983 77.82ZM129.111 77.712C129.027 78.648 128.985 79.488 128.985 80.232C128.985 80.736 129.003 81.144 129.039 81.456H128.625C128.229 79.2 127.425 78.072 126.213 78.072H125.619V85.146C125.619 85.698 125.757 86.082 126.033 86.298C126.321 86.514 126.747 86.622 127.311 86.622V87L126.807 86.982C125.511 86.946 124.689 86.928 124.341 86.928C123.993 86.928 123.153 86.946 121.821 86.982L121.335 87V86.622C121.923 86.622 122.349 86.532 122.613 86.352C122.889 86.172 123.027 85.806 123.027 85.254V78.072H122.361C121.809 78.072 121.335 78.33 120.939 78.846C120.555 79.362 120.255 80.232 120.039 81.456H119.625C119.661 81.168 119.679 80.76 119.679 80.232C119.679 79.512 119.637 78.672 119.553 77.712H121.461L122.559 77.73C123.279 77.754 123.861 77.766 124.305 77.766C124.749 77.766 125.343 77.754 126.087 77.73L127.203 77.712H129.111ZM56.6327 102.072C56.3327 102.084 56.1047 102.126 55.9487 102.198C55.8047 102.27 55.7027 102.402 55.6427 102.594C55.5827 102.786 55.5527 103.074 55.5527 103.458L55.5527 109.236C55.5527 109.62 55.5827 109.908 55.6427 110.1C55.7027 110.292 55.8047 110.424 55.9487 110.496C56.1047 110.568 56.3327 110.61 56.6327 110.622V111L56.2187 110.982C55.2107 110.946 54.5747 110.928 54.3107 110.928C54.0467 110.928 53.3387 110.946 52.1867 110.982L51.7727 111V110.622C52.0967 110.61 52.3427 110.568 52.5107 110.496C52.6787 110.424 52.7927 110.292 52.8527 110.1C52.9247 109.908 52.9607 109.62 52.9607 109.236L52.9607 102.738L49.5227 111.09H49.2347L45.7967 102.846V108.444C45.7967 109.212 45.9047 109.764 46.1207 110.1C46.3487 110.436 46.7987 110.616 47.4707 110.64V111C46.9667 110.964 46.3487 110.946 45.6167 110.946C45.0047 110.946 44.5187 110.964 44.1587 111V110.64C44.6507 110.616 44.9807 110.424 45.1487 110.064C45.3167 109.692 45.4007 109.116 45.4007 108.336V103.602C45.4007 103.146 45.3707 102.816 45.3107 102.612C45.2507 102.408 45.1367 102.27 44.9687 102.198C44.8007 102.126 44.5307 102.078 44.1587 102.054V101.694C44.5187 101.73 45.0047 101.748 45.6167 101.748C46.5407 101.748 47.3447 101.73 48.0287 101.694L50.4767 107.832L52.9607 101.748C53.2607 101.76 53.7467 101.766 54.4187 101.766C55.2467 101.766 55.9847 101.742 56.6327 101.694V102.072ZM59.9476 111.126C59.1796 111.126 58.6036 110.928 58.2196 110.532C57.8476 110.136 57.6616 109.614 57.6616 108.966C57.6616 108.426 57.7996 107.982 58.0756 107.634C58.3636 107.274 58.7056 106.998 59.1016 106.806C59.5096 106.614 60.0256 106.41 60.6496 106.194C61.3096 105.966 61.7896 105.762 62.0896 105.582C62.4016 105.39 62.5576 105.132 62.5576 104.808V103.404C62.5576 102.9 62.4376 102.51 62.1976 102.234C61.9696 101.946 61.6096 101.802 61.1176 101.802C60.5416 101.802 60.1036 101.946 59.8036 102.234C60.1396 102.354 60.3976 102.534 60.5776 102.774C60.7696 103.014 60.8656 103.296 60.8656 103.62C60.8656 104.028 60.7276 104.352 60.4516 104.592C60.1756 104.832 59.8396 104.952 59.4436 104.952C59.0236 104.952 58.6996 104.82 58.4716 104.556C58.2436 104.292 58.1296 103.962 58.1296 103.566C58.1296 103.23 58.2076 102.948 58.3636 102.72C58.5316 102.48 58.7836 102.258 59.1196 102.054C59.4436 101.862 59.8396 101.712 60.3076 101.604C60.7876 101.496 61.3096 101.442 61.8736 101.442C62.4616 101.442 62.9716 101.502 63.4036 101.622C63.8356 101.742 64.1956 101.946 64.4836 102.234C64.7476 102.498 64.9216 102.822 65.0056 103.206C65.1016 103.59 65.1496 104.112 65.1496 104.772V109.668C65.1496 109.956 65.1736 110.16 65.2216 110.28C65.2816 110.4 65.3896 110.46 65.5456 110.46C65.7256 110.46 65.9416 110.358 66.1936 110.154L66.3736 110.46C65.8336 110.904 65.1736 111.126 64.3936 111.126C63.7336 111.126 63.2716 110.994 63.0076 110.73C62.7436 110.466 62.6056 110.112 62.5936 109.668C61.9936 110.64 61.1116 111.126 59.9476 111.126ZM61.3336 109.974C61.8016 109.974 62.2096 109.728 62.5576 109.236V105.546C62.4136 105.786 62.1076 106.05 61.6396 106.338C61.1716 106.638 60.8176 106.938 60.5776 107.238C60.3376 107.538 60.2176 107.97 60.2176 108.534C60.2176 109.026 60.3196 109.392 60.5236 109.632C60.7276 109.86 60.9976 109.974 61.3336 109.974ZM74.4121 101.712C74.3281 102.648 74.2861 103.488 74.2861 104.232C74.2861 104.736 74.3041 105.144 74.3401 105.456H73.9261C73.7101 104.268 73.4161 103.41 73.0441 102.882C72.6841 102.342 72.2461 102.072 71.7301 102.072H71.4061C71.1301 102.072 70.9321 102.156 70.8121 102.324C70.6921 102.48 70.6321 102.762 70.6321 103.17V109.146C70.6321 109.698 70.7701 110.082 71.0461 110.298C71.3341 110.514 71.7601 110.622 72.3241 110.622V111L71.8561 110.982C70.5241 110.946 69.6481 110.928 69.2281 110.928C68.9161 110.928 68.2561 110.946 67.2481 110.982L66.8881 111V110.622C67.3201 110.622 67.6201 110.532 67.7881 110.352C67.9561 110.16 68.0401 109.818 68.0401 109.326V103.386C68.0401 102.894 67.9561 102.558 67.7881 102.378C67.6201 102.186 67.3201 102.09 66.8881 102.09V101.712C68.1361 101.76 68.9281 101.784 69.2641 101.784C69.6361 101.784 70.1221 101.772 70.7221 101.748C71.1781 101.724 71.4781 101.712 71.6221 101.712H74.4121ZM77.6664 111.126C76.8984 111.126 76.3224 110.928 75.9384 110.532C75.5664 110.136 75.3804 109.614 75.3804 108.966C75.3804 108.426 75.5184 107.982 75.7944 107.634C76.0824 107.274 76.4244 106.998 76.8204 106.806C77.2284 106.614 77.7444 106.41 78.3684 106.194C79.0284 105.966 79.5084 105.762 79.8084 105.582C80.1204 105.39 80.2764 105.132 80.2764 104.808V103.404C80.2764 102.9 80.1564 102.51 79.9164 102.234C79.6884 101.946 79.3284 101.802 78.8364 101.802C78.2604 101.802 77.8224 101.946 77.5224 102.234C77.8584 102.354 78.1164 102.534 78.2964 102.774C78.4884 103.014 78.5844 103.296 78.5844 103.62C78.5844 104.028 78.4464 104.352 78.1704 104.592C77.8944 104.832 77.5584 104.952 77.1624 104.952C76.7424 104.952 76.4184 104.82 76.1904 104.556C75.9624 104.292 75.8484 103.962 75.8484 103.566C75.8484 103.23 75.9264 102.948 76.0824 102.72C76.2504 102.48 76.5024 102.258 76.8384 102.054C77.1624 101.862 77.5584 101.712 78.0264 101.604C78.5064 101.496 79.0284 101.442 79.5924 101.442C80.1804 101.442 80.6904 101.502 81.1224 101.622C81.5544 101.742 81.9144 101.946 82.2024 102.234C82.4664 102.498 82.6404 102.822 82.7244 103.206C82.8204 103.59 82.8684 104.112 82.8684 104.772V109.668C82.8684 109.956 82.8924 110.16 82.9404 110.28C83.0004 110.4 83.1084 110.46 83.2644 110.46C83.4444 110.46 83.6604 110.358 83.9124 110.154L84.0924 110.46C83.5524 110.904 82.8924 111.126 82.1124 111.126C81.4524 111.126 80.9904 110.994 80.7264 110.73C80.4624 110.466 80.3244 110.112 80.3124 109.668C79.7124 110.64 78.8304 111.126 77.6664 111.126ZM79.0524 109.974C79.5204 109.974 79.9284 109.728 80.2764 109.236V105.546C80.1324 105.786 79.8264 106.05 79.3584 106.338C78.8904 106.638 78.5364 106.938 78.2964 107.238C78.0564 107.538 77.9364 107.97 77.9364 108.534C77.9364 109.026 78.0384 109.392 78.2424 109.632C78.4464 109.86 78.7164 109.974 79.0524 109.974ZM88.7828 101.442C89.7308 101.442 90.4928 101.628 91.0688 102C91.6568 102.36 91.9508 102.882 91.9508 103.566C91.9508 104.298 91.6208 104.856 90.9608 105.24C90.3008 105.624 89.4668 105.888 88.4588 106.032C89.7188 106.044 90.7028 106.242 91.4108 106.626C92.1188 106.998 92.4728 107.586 92.4728 108.39C92.4728 108.966 92.2868 109.47 91.9148 109.902C91.5428 110.334 91.0148 110.67 90.3308 110.91C89.6588 111.138 88.8728 111.252 87.9728 111.252C86.9528 111.252 86.1308 111.06 85.5068 110.676C84.9188 110.292 84.6248 109.824 84.6248 109.272C84.6248 108.9 84.7448 108.6 84.9848 108.372C85.2368 108.132 85.5788 108.012 86.0108 108.012C86.4308 108.012 86.7728 108.126 87.0368 108.354C87.3008 108.582 87.4328 108.888 87.4328 109.272C87.4328 109.596 87.3308 109.872 87.1268 110.1C86.9348 110.316 86.6768 110.466 86.3528 110.55C86.4608 110.634 86.6348 110.712 86.8748 110.784C87.1148 110.856 87.3668 110.892 87.6308 110.892C88.3148 110.892 88.8548 110.688 89.2508 110.28C89.6468 109.872 89.8448 109.308 89.8448 108.588C89.8448 107.988 89.7008 107.466 89.4128 107.022C89.1368 106.578 88.7228 106.302 88.1708 106.194C87.8828 106.35 87.6308 106.428 87.4148 106.428C87.1508 106.428 87.0188 106.326 87.0188 106.122C87.0188 105.93 87.1568 105.834 87.4328 105.834C87.6008 105.834 87.8528 105.87 88.1888 105.942C88.9808 105.558 89.3768 104.85 89.3768 103.818C89.3768 103.23 89.2568 102.78 89.0168 102.468C88.7888 102.156 88.4408 102 87.9728 102C87.2888 102 86.7308 102.276 86.2988 102.828C85.8788 103.368 85.6568 104.058 85.6328 104.898H85.2188V104.178C85.2188 102.99 85.1888 102.126 85.1288 101.586H85.5428C85.5788 101.862 85.6268 102.066 85.6868 102.198C85.7468 102.318 85.8308 102.378 85.9388 102.378C86.0468 102.378 86.2508 102.276 86.5508 102.072C86.8748 101.856 87.2048 101.7 87.5408 101.604C87.8768 101.496 88.2908 101.442 88.7828 101.442ZM104.339 102.09C103.919 102.09 103.619 102.186 103.439 102.378C103.271 102.558 103.187 102.894 103.187 103.386V109.326C103.187 109.818 103.271 110.16 103.439 110.352C103.619 110.532 103.919 110.622 104.339 110.622V111C103.139 110.952 102.347 110.928 101.963 110.928C101.603 110.928 100.823 110.952 99.6234 111V110.622C99.9834 110.622 100.235 110.532 100.379 110.352C100.523 110.16 100.595 109.818 100.595 109.326V103.872L97.1754 109.668C97.1994 110.028 97.2834 110.28 97.4274 110.424C97.5834 110.556 97.8174 110.622 98.1294 110.622V111C97.0254 110.952 96.2814 110.928 95.8974 110.928C95.5374 110.928 94.7094 110.952 93.4134 111V110.622C93.8454 110.622 94.1454 110.532 94.3134 110.352C94.4814 110.16 94.5654 109.818 94.5654 109.326V103.386C94.5654 102.894 94.4814 102.558 94.3134 102.378C94.1454 102.186 93.8454 102.09 93.4134 102.09V101.712C94.6614 101.76 95.4534 101.784 95.7894 101.784C96.1974 101.784 96.9774 101.76 98.1294 101.712V102.09C97.7694 102.09 97.5174 102.186 97.3734 102.378C97.2294 102.558 97.1574 102.894 97.1574 103.386V109.002L100.595 103.188C100.583 102.768 100.499 102.48 100.343 102.324C100.199 102.168 99.9594 102.09 99.6234 102.09V101.712C100.775 101.76 101.519 101.784 101.855 101.784C102.263 101.784 103.091 101.76 104.339 101.712V102.09ZM115.81 102.09C115.39 102.09 115.09 102.186 114.91 102.378C114.742 102.558 114.658 102.894 114.658 103.386V109.326C114.658 109.818 114.742 110.16 114.91 110.352C115.09 110.532 115.39 110.622 115.81 110.622V111C114.61 110.952 113.818 110.928 113.434 110.928C113.074 110.928 112.294 110.952 111.094 111V110.622C111.454 110.622 111.706 110.532 111.85 110.352C111.994 110.16 112.066 109.818 112.066 109.326V106.392H108.952V109.326C108.952 109.818 109.024 110.16 109.168 110.352C109.312 110.532 109.564 110.622 109.924 110.622V111C108.82 110.952 108.076 110.928 107.692 110.928C107.332 110.928 106.504 110.952 105.208 111V110.622C105.64 110.622 105.94 110.532 106.108 110.352C106.276 110.16 106.36 109.818 106.36 109.326V103.386C106.36 102.894 106.276 102.558 106.108 102.378C105.94 102.186 105.64 102.09 105.208 102.09V101.712C106.456 101.76 107.248 101.784 107.584 101.784C107.992 101.784 108.772 101.76 109.924 101.712V102.09C109.564 102.09 109.312 102.186 109.168 102.378C109.024 102.558 108.952 102.894 108.952 103.386V106.032H112.066V103.386C112.066 102.894 111.994 102.558 111.85 102.378C111.706 102.186 111.454 102.09 111.094 102.09V101.712C112.246 101.76 112.99 101.784 113.326 101.784C113.734 101.784 114.562 101.76 115.81 101.712V102.09Z" fill="white"/>
</svg>
