<svg width="200" height="200" viewBox="0 0 200 200" fill="none" xmlns="http://www.w3.org/2000/svg">
<circle cx="100" cy="100" r="99.5" stroke="#3F3F3F"/>
<path d="M77.454 94.56C77.3513 95.6307 77.3 96.584 77.3 97.42C77.3 98.0213 77.322 98.498 77.366 98.85H76.86C76.64 97.442 76.2293 96.4447 75.628 95.858C75.0266 95.286 74.1906 95 73.12 95H67.796C66.7253 95 65.8893 95.286 65.288 95.858C64.6866 96.4447 64.276 97.442 64.056 98.85H63.55C63.594 98.498 63.616 98.0213 63.616 97.42C63.616 96.584 63.5646 95.6307 63.462 94.56H63.858C64.87 94.56 65.6473 93.9807 66.19 92.822C66.7473 91.6633 67.1286 90.27 67.334 88.642C67.554 87.014 67.7446 84.902 67.906 82.306L67.95 81.756C67.9793 81.228 67.95 80.8393 67.862 80.59C67.7886 80.326 67.6273 80.15 67.378 80.062C67.1286 79.9593 66.7253 79.8933 66.168 79.864V79.424C66.784 79.468 67.5393 79.49 68.434 79.49C68.654 79.49 68.984 79.4753 69.424 79.446L70.37 79.424L71.844 79.446C72.5186 79.4753 73.076 79.49 73.516 79.49C75.0266 79.49 76.1633 79.468 76.926 79.424V79.864C76.398 79.8933 76.0093 79.952 75.76 80.04C75.5253 80.128 75.364 80.2967 75.276 80.546C75.188 80.7953 75.144 81.1987 75.144 81.756V92.668C75.144 93.2253 75.1806 93.636 75.254 93.9C75.342 94.1493 75.496 94.3253 75.716 94.428C75.9506 94.516 76.31 94.56 76.794 94.56H77.454ZM71.646 81.756C71.646 81.228 71.5946 80.832 71.492 80.568C71.404 80.2893 71.25 80.106 71.03 80.018C70.8246 79.9153 70.524 79.864 70.128 79.864H69.842C69.5046 79.864 69.248 79.9153 69.072 80.018C68.896 80.1207 68.7566 80.304 68.654 80.568C68.566 80.832 68.5 81.228 68.456 81.756L68.28 83.912C68.148 85.8187 68.0013 87.41 67.84 88.686C67.6786 89.9473 67.4 91.128 67.004 92.228C66.608 93.328 66.0506 94.1053 65.332 94.56H69.864C70.3773 94.56 70.7586 94.516 71.008 94.428C71.2573 94.3253 71.426 94.1493 71.514 93.9C71.602 93.636 71.646 93.2253 71.646 92.668V81.756ZM85.9592 83.318C86.7219 83.318 87.3965 83.5233 87.9832 83.934C88.5845 84.3447 89.0539 84.9607 89.3912 85.782C89.7285 86.6033 89.8972 87.608 89.8972 88.796C89.8972 90.8933 89.4352 92.5067 88.5112 93.636C87.6019 94.7507 86.3625 95.308 84.7932 95.308C84.3532 95.308 83.9352 95.2493 83.5392 95.132C83.1579 95.0147 82.8279 94.8387 82.5492 94.604V96.804C82.5492 97.4493 82.7105 97.8967 83.0332 98.146C83.3559 98.3953 83.8545 98.52 84.5292 98.52V98.982L83.9352 98.96C82.3072 98.916 81.2732 98.894 80.8332 98.894C80.3932 98.894 79.4692 98.9233 78.0612 98.982V98.52C78.5452 98.52 78.8825 98.41 79.0732 98.19C79.2785 97.9847 79.3812 97.596 79.3812 97.024V86.024C79.3812 85.3493 79.2712 84.858 79.0512 84.55C78.8459 84.242 78.4865 84.088 77.9732 84.088V83.626C78.4425 83.67 78.8972 83.692 79.3372 83.692C80.6132 83.692 81.6839 83.5893 82.5492 83.384V85.408C82.8572 84.7333 83.3045 84.22 83.8912 83.868C84.4779 83.5013 85.1672 83.318 85.9592 83.318ZM83.9352 94.714C84.8739 94.714 85.5485 94.252 85.9592 93.328C86.3699 92.3893 86.5752 91.0253 86.5752 89.236C86.5752 87.4467 86.4065 86.1707 86.0692 85.408C85.7465 84.6453 85.2772 84.264 84.6612 84.264C84.1625 84.264 83.7152 84.4327 83.3192 84.77C82.9379 85.1073 82.6812 85.5767 82.5492 86.178V94.12C82.9012 94.516 83.3632 94.714 83.9352 94.714ZM99.9943 83.692C100.728 83.692 101.292 83.67 101.688 83.626V84.066C101.38 84.154 101.102 84.3447 100.852 84.638C100.618 84.9167 100.39 85.3567 100.17 85.958L96.2323 97.024C95.939 97.7867 95.6163 98.3073 95.2643 98.586C94.839 98.9527 94.201 99.136 93.3503 99.136C92.7343 99.136 92.177 98.982 91.6783 98.674C91.1943 98.3807 90.9523 97.948 90.9523 97.376C90.9523 96.9213 91.1137 96.5547 91.4363 96.276C91.759 96.012 92.1843 95.88 92.7123 95.88C93.211 95.88 93.607 95.9973 93.9003 96.232C94.2083 96.4813 94.3623 96.826 94.3623 97.266C94.3623 97.574 94.267 97.8527 94.0763 98.102C93.8857 98.366 93.6143 98.564 93.2623 98.696C93.365 98.7107 93.5337 98.718 93.7683 98.718C94.6777 98.718 95.345 98.1387 95.7703 96.98L96.1223 95.924L91.4583 85.32C91.2237 84.8213 90.9963 84.4913 90.7763 84.33C90.5563 84.1687 90.329 84.088 90.0943 84.088V83.626C91.0623 83.714 92.067 83.758 93.1083 83.758C93.9737 83.758 94.993 83.714 96.1663 83.626V84.088C95.697 84.088 95.345 84.1247 95.1103 84.198C94.8903 84.2567 94.7803 84.4253 94.7803 84.704C94.7803 84.8653 94.8317 85.0707 94.9343 85.32L97.6183 91.81L99.1363 87.586C99.371 86.8967 99.4883 86.31 99.4883 85.826C99.4883 84.7553 98.9457 84.1687 97.8603 84.066V83.626C98.5497 83.67 99.261 83.692 99.9943 83.692ZM111.535 83.648C111.432 84.792 111.381 85.8187 111.381 86.728C111.381 87.344 111.403 87.8427 111.447 88.224H110.941C110.677 86.772 110.317 85.7233 109.863 85.078C109.423 84.418 108.887 84.088 108.257 84.088H107.861C107.523 84.088 107.281 84.1907 107.135 84.396C106.988 84.5867 106.915 84.9313 106.915 85.43V92.734C106.915 93.4087 107.083 93.878 107.421 94.142C107.773 94.406 108.293 94.538 108.983 94.538V95L108.411 94.978C106.783 94.934 105.712 94.912 105.199 94.912C104.817 94.912 104.011 94.934 102.779 94.978L102.339 95V94.538C102.867 94.538 103.233 94.428 103.439 94.208C103.644 93.9733 103.747 93.5553 103.747 92.954V85.694C103.747 85.0927 103.644 84.682 103.439 84.462C103.233 84.2273 102.867 84.11 102.339 84.11V83.648C103.864 83.7067 104.832 83.736 105.243 83.736C105.697 83.736 106.291 83.7213 107.025 83.692C107.582 83.6627 107.949 83.648 108.125 83.648H111.535ZM125.962 84.11C125.449 84.11 125.082 84.2273 124.862 84.462C124.657 84.682 124.554 85.0927 124.554 85.694V92.954C124.554 93.5553 124.657 93.9733 124.862 94.208C125.082 94.428 125.449 94.538 125.962 94.538V95C124.495 94.9413 123.527 94.912 123.058 94.912C122.618 94.912 121.665 94.9413 120.198 95V94.538C120.638 94.538 120.946 94.428 121.122 94.208C121.298 93.9733 121.386 93.5553 121.386 92.954V86.288L117.206 93.372C117.235 93.812 117.338 94.12 117.514 94.296C117.705 94.4573 117.991 94.538 118.372 94.538V95C117.023 94.9413 116.113 94.912 115.644 94.912C115.204 94.912 114.192 94.9413 112.608 95V94.538C113.136 94.538 113.503 94.428 113.708 94.208C113.913 93.9733 114.016 93.5553 114.016 92.954V85.694C114.016 85.0927 113.913 84.682 113.708 84.462C113.503 84.2273 113.136 84.11 112.608 84.11V83.648C114.133 83.7067 115.101 83.736 115.512 83.736C116.011 83.736 116.964 83.7067 118.372 83.648V84.11C117.932 84.11 117.624 84.2273 117.448 84.462C117.272 84.682 117.184 85.0927 117.184 85.694V92.558L121.386 85.452C121.371 84.9387 121.269 84.5867 121.078 84.396C120.902 84.2053 120.609 84.11 120.198 84.11V83.648C121.606 83.7067 122.515 83.736 122.926 83.736C123.425 83.736 124.437 83.7067 125.962 83.648V84.11ZM133.492 93.504C134.695 93.504 135.663 92.9173 136.396 91.744L136.792 91.876C136.499 92.8293 135.971 93.6433 135.208 94.318C134.46 94.978 133.521 95.308 132.392 95.308C130.837 95.308 129.598 94.8167 128.674 93.834C127.765 92.8367 127.31 91.37 127.31 89.434C127.31 87.454 127.801 85.9433 128.784 84.902C129.767 83.846 131.072 83.318 132.7 83.318C135.457 83.318 136.836 84.946 136.836 88.202H130.654C130.639 88.422 130.632 88.7667 130.632 89.236C130.632 90.204 130.764 91.0107 131.028 91.656C131.307 92.3013 131.659 92.7707 132.084 93.064C132.524 93.3573 132.993 93.504 133.492 93.504ZM132.568 83.78C132.04 83.78 131.6 84.11 131.248 84.77C130.911 85.4153 130.698 86.42 130.61 87.784H134.064C134.093 86.6253 133.976 85.672 133.712 84.924C133.463 84.1613 133.081 83.78 132.568 83.78ZM68.5031 112.318C69.2658 112.318 69.9405 112.523 70.5271 112.934C71.1285 113.345 71.5978 113.961 71.9351 114.782C72.2725 115.603 72.4411 116.608 72.4411 117.796C72.4411 119.893 71.9791 121.507 71.0551 122.636C70.1458 123.751 68.9065 124.308 67.3371 124.308C66.8971 124.308 66.4791 124.249 66.0831 124.132C65.7018 124.015 65.3718 123.839 65.0931 123.604V125.804C65.0931 126.449 65.2545 126.897 65.5771 127.146C65.8998 127.395 66.3985 127.52 67.0731 127.52V127.982L66.4791 127.96C64.8511 127.916 63.8171 127.894 63.3771 127.894C62.9371 127.894 62.0131 127.923 60.6051 127.982V127.52C61.0891 127.52 61.4265 127.41 61.6171 127.19C61.8225 126.985 61.9251 126.596 61.9251 126.024V115.024C61.9251 114.349 61.8151 113.858 61.5951 113.55C61.3898 113.242 61.0305 113.088 60.5171 113.088V112.626C60.9865 112.67 61.4411 112.692 61.8811 112.692C63.1571 112.692 64.2278 112.589 65.0931 112.384V114.408C65.4011 113.733 65.8485 113.22 66.4351 112.868C67.0218 112.501 67.7111 112.318 68.5031 112.318ZM66.4791 123.714C67.4178 123.714 68.0925 123.252 68.5031 122.328C68.9138 121.389 69.1191 120.025 69.1191 118.236C69.1191 116.447 68.9505 115.171 68.6131 114.408C68.2905 113.645 67.8211 113.264 67.2051 113.264C66.7065 113.264 66.2591 113.433 65.8631 113.77C65.4818 114.107 65.2251 114.577 65.0931 115.178V123.12C65.4451 123.516 65.9071 123.714 66.4791 123.714ZM76.7006 124.154C75.7619 124.154 75.0579 123.912 74.5886 123.428C74.1339 122.944 73.9066 122.306 73.9066 121.514C73.9066 120.854 74.0752 120.311 74.4126 119.886C74.7646 119.446 75.1826 119.109 75.6666 118.874C76.1652 118.639 76.7959 118.39 77.5586 118.126C78.3652 117.847 78.9519 117.598 79.3186 117.378C79.6999 117.143 79.8906 116.828 79.8906 116.432V114.716C79.8906 114.1 79.7439 113.623 79.4506 113.286C79.1719 112.934 78.7319 112.758 78.1306 112.758C77.4266 112.758 76.8912 112.934 76.5246 113.286C76.9352 113.433 77.2506 113.653 77.4706 113.946C77.7052 114.239 77.8226 114.584 77.8226 114.98C77.8226 115.479 77.6539 115.875 77.3166 116.168C76.9792 116.461 76.5686 116.608 76.0846 116.608C75.5712 116.608 75.1752 116.447 74.8966 116.124C74.6179 115.801 74.4786 115.398 74.4786 114.914C74.4786 114.503 74.5739 114.159 74.7646 113.88C74.9699 113.587 75.2779 113.315 75.6886 113.066C76.0846 112.831 76.5686 112.648 77.1406 112.516C77.7272 112.384 78.3652 112.318 79.0546 112.318C79.7732 112.318 80.3966 112.391 80.9246 112.538C81.4526 112.685 81.8926 112.934 82.2446 113.286C82.5672 113.609 82.7799 114.005 82.8826 114.474C82.9999 114.943 83.0586 115.581 83.0586 116.388V122.372C83.0586 122.724 83.0879 122.973 83.1466 123.12C83.2199 123.267 83.3519 123.34 83.5426 123.34C83.7626 123.34 84.0266 123.215 84.3346 122.966L84.5546 123.34C83.8946 123.883 83.0879 124.154 82.1346 124.154C81.3279 124.154 80.7632 123.993 80.4406 123.67C80.1179 123.347 79.9492 122.915 79.9346 122.372C79.2012 123.56 78.1232 124.154 76.7006 124.154ZM78.3946 122.746C78.9666 122.746 79.4652 122.445 79.8906 121.844V117.334C79.7146 117.627 79.3406 117.95 78.7686 118.302C78.1966 118.669 77.7639 119.035 77.4706 119.402C77.1772 119.769 77.0306 120.297 77.0306 120.986C77.0306 121.587 77.1552 122.035 77.4046 122.328C77.6539 122.607 77.9839 122.746 78.3946 122.746ZM91.4533 112.89C93.0666 112.89 94.3206 113.359 95.2153 114.298C96.1099 115.237 96.5573 116.615 96.5573 118.434C96.5573 120.37 96.0586 121.837 95.0613 122.834C94.0786 123.817 92.7219 124.308 90.9913 124.308C89.1139 124.308 87.7793 123.729 86.9873 122.57C86.1953 121.411 85.7993 119.644 85.7993 117.268C85.7993 115.787 85.9459 114.298 86.2393 112.802C86.5473 111.291 87.1119 110.147 87.9333 109.37C88.5639 108.754 89.4733 108.38 90.6613 108.248C91.1013 108.189 91.5633 108.153 92.0473 108.138C92.5459 108.109 92.8833 108.087 93.0593 108.072C93.3966 108.072 93.6313 108.065 93.7633 108.05C94.4966 108.021 95.0613 107.911 95.4573 107.72C95.8533 107.515 96.1833 107.185 96.4473 106.73L96.7773 106.796C96.4839 108.292 95.9926 109.311 95.3033 109.854C94.7459 110.309 93.8953 110.573 92.7513 110.646C92.0473 110.675 91.2919 110.734 90.4853 110.822C89.4586 110.939 88.6813 111.159 88.1533 111.482C87.6399 111.805 87.2439 112.325 86.9653 113.044C86.6866 113.748 86.4593 114.826 86.2833 116.278C86.6353 115.134 87.2659 114.283 88.1753 113.726C89.0993 113.169 90.1919 112.89 91.4533 112.89ZM91.2113 123.868C91.9006 123.868 92.4066 123.369 92.7293 122.372C93.0666 121.36 93.2353 120.018 93.2353 118.346C93.2353 116.601 93.0519 115.332 92.6853 114.54C92.3333 113.733 91.8493 113.33 91.2333 113.33C90.6026 113.33 90.0893 113.741 89.6933 114.562C89.2973 115.369 89.0993 116.659 89.0993 118.434C89.0993 120.238 89.2973 121.595 89.6933 122.504C90.1039 123.413 90.6099 123.868 91.2113 123.868ZM103.578 112.318C105.265 112.318 106.585 112.802 107.538 113.77C108.491 114.723 108.968 116.241 108.968 118.324C108.968 120.407 108.491 121.925 107.538 122.878C106.585 123.831 105.265 124.308 103.578 124.308C101.906 124.308 100.586 123.831 99.618 122.878C98.6647 121.925 98.188 120.407 98.188 118.324C98.188 116.241 98.6647 114.723 99.618 113.77C100.586 112.802 101.906 112.318 103.578 112.318ZM103.578 112.758C102.947 112.758 102.441 113.22 102.06 114.144C101.693 115.053 101.51 116.447 101.51 118.324C101.51 120.201 101.693 121.595 102.06 122.504C102.441 123.413 102.947 123.868 103.578 123.868C104.223 123.868 104.729 123.421 105.096 122.526C105.463 121.617 105.646 120.216 105.646 118.324C105.646 116.432 105.455 115.031 105.074 114.122C104.707 113.213 104.209 112.758 103.578 112.758ZM122.067 112.648C121.965 113.792 121.913 114.819 121.913 115.728C121.913 116.344 121.935 116.843 121.979 117.224H121.473C120.989 114.467 120.007 113.088 118.525 113.088H117.799V121.734C117.799 122.409 117.968 122.878 118.305 123.142C118.657 123.406 119.178 123.538 119.867 123.538V124L119.251 123.978C117.667 123.934 116.663 123.912 116.237 123.912C115.812 123.912 114.785 123.934 113.157 123.978L112.563 124V123.538C113.282 123.538 113.803 123.428 114.125 123.208C114.463 122.988 114.631 122.541 114.631 121.866V113.088H113.817C113.143 113.088 112.563 113.403 112.079 114.034C111.61 114.665 111.243 115.728 110.979 117.224H110.473C110.517 116.872 110.539 116.373 110.539 115.728C110.539 114.848 110.488 113.821 110.385 112.648H112.717L114.059 112.67C114.939 112.699 115.651 112.714 116.193 112.714C116.736 112.714 117.462 112.699 118.371 112.67L119.735 112.648H122.067ZM129.218 117.378C130.904 117.378 132.158 117.671 132.98 118.258C133.816 118.83 134.234 119.585 134.234 120.524C134.234 121.125 134.05 121.69 133.684 122.218C133.317 122.731 132.73 123.157 131.924 123.494C131.117 123.831 130.09 124 128.844 124C128.609 124 128.213 123.985 127.656 123.956C127.04 123.927 126.526 123.912 126.116 123.912C125.676 123.912 124.722 123.941 123.256 124V123.538C123.725 123.538 124.055 123.428 124.246 123.208C124.436 122.973 124.532 122.555 124.532 121.954V114.694C124.532 114.093 124.444 113.682 124.268 113.462C124.092 113.227 123.784 113.11 123.344 113.11V112.648C124.693 112.707 125.602 112.736 126.072 112.736C126.512 112.736 127.524 112.707 129.108 112.648V113.11C128.58 113.11 128.213 113.227 128.008 113.462C127.802 113.682 127.7 114.093 127.7 114.694V117.4L129.218 117.378ZM139.008 121.954C139.008 122.555 139.11 122.973 139.316 123.208C139.521 123.428 139.888 123.538 140.416 123.538V124C138.832 123.941 137.812 123.912 137.358 123.912C136.874 123.912 135.928 123.941 134.52 124V123.538C135.018 123.538 135.363 123.428 135.554 123.208C135.744 122.973 135.84 122.555 135.84 121.954V114.694C135.84 114.093 135.744 113.682 135.554 113.462C135.363 113.227 135.018 113.11 134.52 113.11V112.648C136.045 112.707 137.035 112.736 137.49 112.736C137.915 112.736 138.861 112.707 140.328 112.648V113.11C139.829 113.11 139.484 113.227 139.294 113.462C139.103 113.682 139.008 114.093 139.008 114.694V121.954ZM128.58 123.538C130.178 123.538 130.978 122.599 130.978 120.722C130.978 119.681 130.736 118.94 130.252 118.5C129.768 118.045 128.954 117.818 127.81 117.818H127.7V122.416C127.7 122.871 127.758 123.171 127.876 123.318C127.993 123.465 128.228 123.538 128.58 123.538Z" fill="#3F3F3F"/>
</svg>
